HIERARCHY
ROOT hip
{
  OFFSET -0.199065 82.1288 -0.160195
  CHANNELS 6 Xposition Yposition Zposition Zrotation Xrotation Yrotation
  JOINT abdomen
  {
    OFFSET 0 7.2397 0
    CHANNELS 6 Xposition Yposition Zposition Zrotation Xrotation Yrotation
    JOINT chest
    {
      OFFSET 0 16.546 0
      CHANNELS 6 Xposition Yposition Zposition Zrotation Xrotation Yrotation
      JOINT neck
      {
        OFFSET 0 34.2149 0
        CHANNELS 6 Xposition Yposition Zposition Zrotation Xrotation Yrotation
        JOINT head
        {
          OFFSET 0 6.2923 0
          CHANNELS 6 Xposition Yposition Zposition Zrotation Xrotation Yrotation
          End Site
          {
            OFFSET 0 21.2161 0
          }
        }
      }
      JOINT lCollar
      {
        OFFSET 4.0639 26.6115 -1.1234
        CHANNELS 6 Xposition Yposition Zposition Zrotation Xrotation Yrotation
        JOINT lShldr
        {
          OFFSET 14.1772 0 0
          CHANNELS 6 Xposition Yposition Zposition Zrotation Xrotation Yrotation
          JOINT lForeArm
          {
            OFFSET 26.1234 0 0
            CHANNELS 6 Xposition Yposition Zposition Zrotation Xrotation Yrotation
            JOINT lHand
            {
              OFFSET 27.7188 0 0
              CHANNELS 6 Xposition Yposition Zposition Zrotation Xrotation Yrotation
              JOINT lThumb1
              {
                OFFSET 2.2979 -0.4685 1.8313
                CHANNELS 6 Xposition Yposition Zposition Zrotation Xrotation Yrotation
                JOINT lThumb2
                {
                  OFFSET 5.2953 0 0
                  CHANNELS 6 Xposition Yposition Zposition Zrotation Xrotation Yrotation
                  JOINT lThumb3
                  {
                    OFFSET 3.0181 0 0
                    CHANNELS 6 Xposition Yposition Zposition Zrotation Xrotation Yrotation
                    End Site
                    {
                      OFFSET 2.6294 0 0
                    }
                  }
                }
              }
              JOINT lIndex1
              {
                OFFSET 9.3793 0.2991 2.5924
                CHANNELS 6 Xposition Yposition Zposition Zrotation Xrotation Yrotation
                JOINT lIndex2
                {
                  OFFSET 4.3461 0 0
                  CHANNELS 6 Xposition Yposition Zposition Zrotation Xrotation Yrotation
                  JOINT lIndex3
                  {
                    OFFSET 2.1666 0 0
                    CHANNELS 6 Xposition Yposition Zposition Zrotation Xrotation Yrotation
                    End Site
                    {
                      OFFSET 2.2048 0 0
                    }
                  }
                }
              }
              JOINT lMid1
              {
                OFFSET 9.4769 0.8376 0.2947
                CHANNELS 6 Xposition Yposition Zposition Zrotation Xrotation Yrotation
                JOINT lMid2
                {
                  OFFSET 4.772 0 0
                  CHANNELS 6 Xposition Yposition Zposition Zrotation Xrotation Yrotation
                  JOINT lMid3
                  {
                    OFFSET 2.8722 0 0
                    CHANNELS 6 Xposition Yposition Zposition Zrotation Xrotation Yrotation
                    End Site
                    {
                      OFFSET 2.0959 0 0
                    }
                  }
                }
              }
              JOINT lRing1
              {
                OFFSET 8.6586 1.0176 -1.7016
                CHANNELS 6 Xposition Yposition Zposition Zrotation Xrotation Yrotation
                JOINT lRing2
                {
                  OFFSET 4.5461 0 0
                  CHANNELS 6 Xposition Yposition Zposition Zrotation Xrotation Yrotation
                  JOINT lRing3
                  {
                    OFFSET 2.506 0 0
                    CHANNELS 6 Xposition Yposition Zposition Zrotation Xrotation Yrotation
                    End Site
                    {
                      OFFSET 2.2023 0 0
                    }
                  }
                }
              }
              JOINT lPinky1
              {
                OFFSET 7.6901 0.6618 -3.9096
                CHANNELS 6 Xposition Yposition Zposition Zrotation Xrotation Yrotation
                JOINT lPinky2
                {
                  OFFSET 3.2119 0 0
                  CHANNELS 6 Xposition Yposition Zposition Zrotation Xrotation Yrotation
                  JOINT lPinky3
                  {
                    OFFSET 1.924 0 0
                    CHANNELS 6 Xposition Yposition Zposition Zrotation Xrotation Yrotation
                    End Site
                    {
                      OFFSET 1.7829 0 0
                    }
                  }
                }
              }
            }
          }
        }
      }
      JOINT rCollar
      {
        OFFSET -4.0677 26.6109 -1.1234
        CHANNELS 6 Xposition Yposition Zposition Zrotation Xrotation Yrotation
        JOINT rShldr
        {
          OFFSET -14.1772 0 0
          CHANNELS 6 Xposition Yposition Zposition Zrotation Xrotation Yrotation
          JOINT rForeArm
          {
            OFFSET -26.1234 0 0
            CHANNELS 6 Xposition Yposition Zposition Zrotation Xrotation Yrotation
            JOINT rHand
            {
              OFFSET -27.7188 0 0
              CHANNELS 6 Xposition Yposition Zposition Zrotation Xrotation Yrotation
              JOINT rThumb1
              {
                OFFSET -2.2979 -0.4684 1.8313
                CHANNELS 6 Xposition Yposition Zposition Zrotation Xrotation Yrotation
                JOINT rThumb2
                {
                  OFFSET -5.2953 0 0
                  CHANNELS 6 Xposition Yposition Zposition Zrotation Xrotation Yrotation
                  JOINT rThumb3
                  {
                    OFFSET -3.0181 0 0
                    CHANNELS 6 Xposition Yposition Zposition Zrotation Xrotation Yrotation
                    End Site
                    {
                      OFFSET -2.6294 0 0
                    }
                  }
                }
              }
              JOINT rIndex1
              {
                OFFSET -9.3793 0.2991 2.5924
                CHANNELS 6 Xposition Yposition Zposition Zrotation Xrotation Yrotation
                JOINT rIndex2
                {
                  OFFSET -4.3461 0 0
                  CHANNELS 6 Xposition Yposition Zposition Zrotation Xrotation Yrotation
                  JOINT rIndex3
                  {
                    OFFSET -2.1666 0 0
                    CHANNELS 6 Xposition Yposition Zposition Zrotation Xrotation Yrotation
                    End Site
                    {
                      OFFSET -2.2048 0 0
                    }
                  }
                }
              }
              JOINT rMid1
              {
                OFFSET -9.4769 0.8376 0.2947
                CHANNELS 6 Xposition Yposition Zposition Zrotation Xrotation Yrotation
                JOINT rMid2
                {
                  OFFSET -4.772 0 0
                  CHANNELS 6 Xposition Yposition Zposition Zrotation Xrotation Yrotation
                  JOINT rMid3
                  {
                    OFFSET -2.8722 0 0
                    CHANNELS 6 Xposition Yposition Zposition Zrotation Xrotation Yrotation
                    End Site
                    {
                      OFFSET -2.0959 0 0
                    }
                  }
                }
              }
              JOINT rRing1
              {
                OFFSET -8.6586 1.0176 -1.7016
                CHANNELS 6 Xposition Yposition Zposition Zrotation Xrotation Yrotation
                JOINT rRing2
                {
                  OFFSET -4.5461 0 0
                  CHANNELS 6 Xposition Yposition Zposition Zrotation Xrotation Yrotation
                  JOINT rRing3
                  {
                    OFFSET -2.506 0 0
                    CHANNELS 6 Xposition Yposition Zposition Zrotation Xrotation Yrotation
                    End Site
                    {
                      OFFSET -2.2023 0 0
                    }
                  }
                }
              }
              JOINT rPinky1
              {
                OFFSET -7.6901 0.6618 -3.9096
                CHANNELS 6 Xposition Yposition Zposition Zrotation Xrotation Yrotation
                JOINT rPinky2
                {
                  OFFSET -3.2119 0 0
                  CHANNELS 6 Xposition Yposition Zposition Zrotation Xrotation Yrotation
                  JOINT rPinky3
                  {
                    OFFSET -1.924 0 0
                    CHANNELS 6 Xposition Yposition Zposition Zrotation Xrotation Yrotation
                    End Site
                    {
                      OFFSET -1.7829 0 0
                    }
                  }
                }
              }
            }
          }
        }
      }
    }
  }
  JOINT lThigh
  {
    OFFSET 8.7379 -0.0029 0.0005
    CHANNELS 6 Xposition Yposition Zposition Zrotation Xrotation Yrotation
    JOINT lShin
    {
      OFFSET 0 -46.6676 0
      CHANNELS 6 Xposition Yposition Zposition Zrotation Xrotation Yrotation
      JOINT lFoot
      {
        OFFSET 0 -40.1476 0
        CHANNELS 6 Xposition Yposition Zposition Zrotation Xrotation Yrotation
        JOINT lToes
        {
          OFFSET 0 -8.8846 14.2294
          CHANNELS 6 Xposition Yposition Zposition Zrotation Xrotation Yrotation
          End Site
          {
            OFFSET 0 0 6.296
          }
        }
      }
    }
  }
  JOINT rThigh
  {
    OFFSET -8.7379 0.0029 -0.0005
    CHANNELS 6 Xposition Yposition Zposition Zrotation Xrotation Yrotation
    JOINT rShin
    {
      OFFSET 0 -46.6676 0
      CHANNELS 6 Xposition Yposition Zposition Zrotation Xrotation Yrotation
      JOINT rFoot
      {
        OFFSET 0 -40.1476 0
        CHANNELS 6 Xposition Yposition Zposition Zrotation Xrotation Yrotation
        JOINT rToes
        {
          OFFSET 0 -8.8846 14.2294
          CHANNELS 6 Xposition Yposition Zposition Zrotation Xrotation Yrotation
          End Site
          {
            OFFSET 0 0 6.296
          }
        }
      }
    }
  }
}
MOTION
Frames:	4
Frame Time:	0.0333333
-0.199065 82.1288 -0.160195 -6.51237 0.378829 -39.7239 8.88178e-16 7.2397 0 4.19486 11.518 7.60332 -2.22045e-16 16.546 0 5.93328 25.3344 14.6614 3.55271e-15 34.2149 0 7.24142 24.3388 -4.92991 3.55271e-15 6.2923 -2.84217e-14 -6.47925 -31.271 7.41203 4.0639 26.6115 -1.1234 -3.01327 -7.58202 -22.5175 14.1772 -1.42109e-14 1.42109e-14 -70.0711 -9.10475 -52.4469 26.1234 0 0 -111.167 -15.6139 -91.544 27.7188 -1.42109e-14 -7.10543e-15 4.16508 -30.0448 6.05534 2.2979 -0.4685 1.8313 37.1841 70.9488 -65.3922 5.2953 -7.10543e-15 -7.10543e-15 -13.655 2.43914 4.23129 3.0181 -7.10543e-15 0 40.575 -4.26208 10.4488 9.3793 0.2991 2.5924 -15.7189 8.26172 2.10851 4.3461 0 -7.10543e-15 -27.9757 -1.11869 5.59659 2.1666 -7.10543e-15 -7.10543e-15 -30.2283 -1.57773 5.42759 9.4769 0.8376 0.2947 -15.5575 6.19107 1.8012 4.772 0 0 -44.233 -4.15788 10.4285 2.8722 7.10543e-15 3.55271e-15 -38.4623 -3.11867 10.6456 8.6586 1.0176 -1.7016 -12.8095 4.05761 0.0155078 4.5461 0 0 -68.2419 -4.98729 7.35473 2.506 0 0 -26.1841 0.226359 12.1003 7.6901 0.6618 -3.9096 -1.696 -16.7036 -0.578652 3.2119 2.84217e-14 7.10543e-15 -48.2123 -6.75384 15.0248 1.924 -1.77636e-15 7.10543e-15 -25.7169 -1.92461 10.2067 -4.0677 26.6109 -1.1234 -7.55998 -4.14275 -10.6556 -14.1772 1.42109e-14 7.10543e-15 46.7334 32.1723 34.6566 -26.1234 -1.42109e-14 3.55271e-15 26.1855 -1.1639 122.169 -27.7188 0 0 -4.88273 1.52562 -1.93629 -2.2979 -0.4684 1.8313 -92.2025 72.3372 115.748 -5.2953 1.42109e-14 0 20.8062 -0.164006 -7.80917 -3.0181 -1.42109e-14 -7.10543e-15 7.44364 -1.87406 -23.1506 -9.3793 0.2991 2.5924 -0.483064 -1.40423 -4.4621 -4.3461 -3.55271e-15 -1.42109e-14 11.3883 0.0664268 -2.10804 -2.1666 3.55271e-15 0 35.2116 -1.89995 -5.61245 -9.4769 0.8376 0.2947 -5.74439 -0.492407 -10.345 -4.772 -8.88178e-16 0 99.6663 -15.9161 -13.5329 -2.8722 0 -1.42109e-14 64.9769 -7.76861 -13.6636 -8.6586 1.0176 -1.7016 4.03534 -11.2401 -9.54023 -4.5461 -1.77636e-15 0 113.305 -9.3346 -6.15034 -2.506 0 0 71.4335 -4.52072 -7.13527 -7.6901 0.6618 -3.9096 -3.28617 -26.781 -8.59922 -3.2119 0 -1.42109e-14 88.1865 -18.3452 -18.9248 -1.924 0 -1.42109e-14 68.3112 -11.8989 -18.9733 8.7379 -0.0029 0.0005 26.9707 -22.195 41.3905 0 -46.6676 0 108.346 83.5097 -103.731 1.77636e-15 -40.1476 7.10543e-15 -4.26968 -21.3656 6.24301 1.77636e-15 -8.8846 14.2294 0.0001 0 -0 -8.7379 0.0029 -0.0005 12.051 -31.2107 -6.87732 -2.66454e-15 -46.6676 0 -25.2535 64.2206 21.2419 -1.77636e-15 -40.1476 -3.77476e-15 -1.57219 -31.5185 -6.49656 -8.88178e-16 -8.8846 14.2294 4.96962e-17 -9.93923e-17 -3.18055e-15 
-0.174622 82.8722 4.9372 -6.29125 0.892771 -41.2993 0 7.2397 0 4.12662 11.437 8.07608 4.44089e-16 16.546 0 5.5823 25.1637 15.4793 3.55271e-15 34.2149 -7.10543e-15 7.15762 24.5114 -4.69937 -7.10543e-15 6.2923 0 -6.60198 -30.7064 7.81311 4.0639 26.6115 -1.1234 -2.82105 -7.84754 -21.0142 14.1772 -1.42109e-14 -7.10543e-15 -70.6557 -8.10259 -52.9148 26.1234 0 0 -114.887 -16.5395 -92.8514 27.7188 0 0 3.23778 -26.6317 6.14964 2.2979 -0.4685 1.8313 37.1841 70.9488 -65.3922 5.2953 -1.42109e-14 0 -13.655 2.43914 4.23129 3.0181 7.10543e-15 -1.42109e-14 40.575 -4.26208 10.4488 9.3793 0.2991 2.5924 -15.7189 8.26172 2.10851 4.3461 1.42109e-14 -7.10543e-15 -27.9757 -1.11869 5.59659 2.1666 0 7.10543e-15 -30.2283 -1.57773 5.42759 9.4769 0.8376 0.2947 -15.5575 6.19107 1.8012 4.772 -1.42109e-14 7.10543e-15 -44.233 -4.15788 10.4285 2.8722 0 3.55271e-15 -38.4623 -3.11867 10.6456 8.6586 1.0176 -1.7016 -12.8095 4.05761 0.0155078 4.5461 0 7.10543e-15 -68.2419 -4.98729 7.35473 2.506 0 -1.42109e-14 -26.1841 0.226359 12.1003 7.6901 0.6618 -3.9096 -1.696 -16.7036 -0.578652 3.2119 -1.42109e-14 7.10543e-15 -48.2123 -6.75384 15.0248 1.924 2.66454e-15 -7.10543e-15 -25.7169 -1.92461 10.2067 -4.0677 26.6109 -1.1234 -7.46695 -4.45773 -9.9336 -14.1772 0 -7.10543e-15 46.9611 32.6946 34.4636 -26.1234 -7.10543e-15 -3.55271e-15 27.2988 -1.20996 122.319 -27.7188 1.77636e-15 -1.42109e-14 -4.35196 3.42104 -2.23182 -2.2979 -0.4684 1.8313 -92.2025 72.3372 115.748 -5.2953 1.42109e-14 0 20.8062 -0.164006 -7.80917 -3.0181 -1.42109e-14 0 7.44364 -1.87406 -23.1506 -9.3793 0.2991 2.5924 -0.483064 -1.40423 -4.4621 -4.3461 -3.55271e-15 0 11.3883 0.0664268 -2.10804 -2.1666 3.55271e-15 1.42109e-14 35.2116 -1.89995 -5.61245 -9.4769 0.8376 0.2947 -5.74439 -0.492407 -10.345 -4.772 -8.88178e-16 0 99.6663 -15.9161 -13.5329 -2.8722 7.10543e-15 0 64.9769 -7.76861 -13.6636 -8.6586 1.0176 -1.7016 4.03534 -11.2401 -9.54023 -4.5461 -3.55271e-15 0 113.305 -9.3346 -6.15034 -2.506 0 1.42109e-14 71.4335 -4.52072 -7.13527 -7.6901 0.6618 -3.9096 -3.28617 -26.781 -8.59922 -3.2119 7.10543e-15 1.42109e-14 88.1865 -18.3452 -18.9248 -1.924 7.10543e-15 0 68.3112 -11.8989 -18.9733 8.7379 -0.0029 0.0005 33.5431 -29.4534 45.8322 -8.88178e-16 -46.6676 -7.10543e-15 92.4079 81.2997 -86.0428 0 -40.1476 5.32907e-15 -5.1773 -24.3102 5.65305 0 -8.8846 14.2294 0.0001 0 -0 -8.7379 0.0029 -0.0005 9.04105 -28.2437 -7.89602 -1.77636e-15 -46.6676 7.10543e-15 -24.366 63.388 23.3956 1.33227e-15 -40.1476 -1.9984e-15 -0.530588 -34.0091 -6.02093 -4.44089e-16 -8.8846 14.2294 2.75869e-33 4.96962e-17 -3.18055e-15 
-0.134031 83.3652 10.3717 -5.94134 1.38167 -43.1017 1.77636e-15 7.2397 0 3.81844 11.2701 8.58845 8.88178e-16 16.546 0 4.97818 24.8048 16.3971 0 34.2149 0 7.07897 24.6867 -4.47816 0 6.2923 0 -6.48688 -30.4432 8.09132 4.0639 26.6115 -1.1234 -2.60043 -8.15148 -19.2883 14.1772 -1.42109e-14 0 -70.8585 -6.67415 -53.4461 26.1234 0 1.42109e-14 -109.747 -17.0803 -92.1664 27.7188 0 7.10543e-15 3.57107 -31.6298 6.94135 2.2979 -0.4685 1.8313 37.1841 70.9488 -65.3922 5.2953 -7.10543e-15 0 -13.655 2.43914 4.23129 3.0181 7.10543e-15 -1.42109e-14 40.575 -4.26208 10.4488 9.3793 0.2991 2.5924 -15.7189 8.26172 2.10851 4.3461 -1.42109e-14 -7.10543e-15 -27.9757 -1.11869 5.59659 2.1666 3.55271e-15 -7.10543e-15 -30.2283 -1.57773 5.42759 9.4769 0.8376 0.2947 -15.5575 6.19107 1.8012 4.772 0 7.10543e-15 -44.233 -4.15788 10.4285 2.8722 0 0 -38.4623 -3.11867 10.6456 8.6586 1.0176 -1.7016 -12.8095 4.05761 0.0155078 4.5461 0 -7.10543e-15 -68.2419 -4.98729 7.35473 2.506 0 0 -26.1841 0.226359 12.1003 7.6901 0.6618 -3.9096 -1.696 -16.7036 -0.578652 3.2119 -1.42109e-14 -7.10543e-15 -48.2123 -6.75384 15.0248 1.924 4.44089e-15 -7.10543e-15 -25.7169 -1.92461 10.2067 -4.0677 26.6109 -1.1234 -7.37538 -4.79016 -9.19561 -14.1772 0 -7.10543e-15 47.4739 32.2044 34.3402 -26.1234 7.10543e-15 3.55271e-15 26.9735 -0.901735 122.213 -27.7188 -3.55271e-15 0 -4.45362 3.25092 -3.02606 -2.2979 -0.4684 1.8313 -92.2025 72.3372 115.748 -5.2953 0 0 20.8062 -0.164006 -7.80917 -3.0181 1.42109e-14 -7.10543e-15 7.44364 -1.87406 -23.1506 -9.3793 0.2991 2.5924 -0.483064 -1.40423 -4.4621 -4.3461 0 -1.42109e-14 11.3883 0.0664268 -2.10804 -2.1666 -3.55271e-15 0 35.2116 -1.89995 -5.61245 -9.4769 0.8376 0.2947 -5.74439 -0.492407 -10.345 -4.772 3.55271e-15 0 99.6663 -15.9161 -13.5329 -2.8722 0 0 64.9769 -7.76861 -13.6636 -8.6586 1.0176 -1.7016 4.03534 -11.2401 -9.54023 -4.5461 0 1.42109e-14 113.305 -9.3346 -6.15034 -2.506 0 0 71.4335 -4.52072 -7.13527 -7.6901 0.6618 -3.9096 -3.28617 -26.781 -8.59922 -3.2119 1.42109e-14 0 88.1865 -18.3452 -18.9248 -1.924 -3.55271e-15 1.42109e-14 68.3112 -11.8989 -18.9733 8.7379 -0.0029 0.0005 38.8831 -34.933 48.6222 -1.77636e-15 -46.6676 -1.42109e-14 65.5141 79.0996 -59.9123 3.55271e-15 -40.1476 -3.55271e-15 -6.37206 -27.3848 7.66402 -1.77636e-15 -8.8846 14.2294 0.0001 -1.59028e-15 -7.95139e-16 -8.7379 0.0029 -0.0005 6.60631 -25.201 -6.95345 1.77636e-15 -46.6676 0 -23.4183 62.3555 22.0794 1.77636e-15 -40.1476 -1.33227e-15 3.29616 -36.324 -2.45641 -3.10862e-15 -8.8846 14.2294 -2.48481e-16 9.93923e-17 -3.18055e-15 
-0.0690149 83.6239 15.9509 -5.46039 1.77079 -44.9781 -8.88178e-16 7.2397 0 3.31469 11.0682 9.11435 1.77636e-15 16.546 3.55271e-15 4.28534 24.3688 17.3557 -3.55271e-15 34.2149 0 7.00553 24.8574 -4.26874 0 6.2923 0 -6.20658 -30.4034 8.31667 4.0639 26.6115 -1.1234 -2.28497 -8.46731 -17.4957 14.1772 -2.84217e-14 -3.55271e-15 -71.1718 -5.93396 -54.0195 26.1234 0 0 -115.873 -17.4991 -93.646 27.7188 0 -7.10543e-15 3.2157 -26.2035 6.40069 2.2979 -0.4685 1.8313 37.1841 70.9488 -65.3922 5.2953 -7.10543e-15 0 -13.655 2.43914 4.23129 3.0181 7.10543e-15 1.42109e-14 40.575 -4.26208 10.4488 9.3793 0.2991 2.5924 -15.7189 8.26172 2.10851 4.3461 -1.42109e-14 0 -27.9757 -1.11869 5.59659 2.1666 7.10543e-15 1.42109e-14 -30.2283 -1.57773 5.42759 9.4769 0.8376 0.2947 -15.5575 6.19107 1.8012 4.772 -1.42109e-14 1.42109e-14 -44.233 -4.15788 10.4285 2.8722 -3.55271e-15 0 -38.4623 -3.11867 10.6456 8.6586 1.0176 -1.7016 -12.8095 4.05761 0.0155078 4.5461 1.42109e-14 0 -68.2419 -4.98729 7.35473 2.506 1.42109e-14 7.10543e-15 -26.1841 0.226359 12.1003 7.6901 0.6618 -3.9096 -1.696 -16.7036 -0.578652 3.2119 0 0 -48.2123 -6.75384 15.0248 1.924 0 0 -25.7169 -1.92461 10.2067 -4.0677 26.6109 -1.1234 -7.24708 -5.13887 -8.37572 -14.1772 -2.84217e-14 0 48.0022 31.9048 34.0961 -26.1234 0 3.55271e-15 26.7522 -0.679775 122.292 -27.7188 0 1.42109e-14 -4.5378 3.15402 -3.7991 -2.2979 -0.4684 1.8313 -92.2025 72.3372 115.748 -5.2953 0 0 20.8062 -0.164006 -7.80917 -3.0181 0 0 7.44364 -1.87406 -23.1506 -9.3793 0.2991 2.5924 -0.483064 -1.40423 -4.4621 -4.3461 0 0 11.3883 0.0664268 -2.10804 -2.1666 0 0 35.2116 -1.89995 -5.61245 -9.4769 0.8376 0.2947 -5.74439 -0.492407 -10.345 -4.772 -1.77636e-15 0 99.6663 -15.9161 -13.5329 -2.8722 0 0 64.9769 -7.76861 -13.6636 -8.6586 1.0176 -1.7016 4.03534 -11.2401 -9.54023 -4.5461 7.10543e-15 -1.42109e-14 113.305 -9.3346 -6.15034 -2.506 0 -1.42109e-14 71.4335 -4.52072 -7.13527 -7.6901 0.6618 -3.9096 -3.28617 -26.781 -8.59922 -3.2119 -2.13163e-14 0 88.1865 -18.3452 -18.9248 -1.924 0 0 68.3112 -11.8989 -18.9733 8.7379 -0.0029 0.0005 43.3965 -38.3172 49.7757 0 -46.6676 0 36.9375 74.3092 -30.0087 0 -40.1476 0 -7.64355 -28.1224 5.8698 0 -8.8846 14.2294 0.0001 0 -0 -8.7379 0.0029 -0.0005 4.33582 -22.1178 -4.80189 1.77636e-15 -46.6676 0 -22.2095 60.9817 20.3421 -1.77636e-15 -40.1476 -3.9968e-15 7.61402 -38.2181 0.639633 -8.88178e-16 -8.8846 14.2294 4.96962e-17 -4.96962e-17 -0 
